<mxfile host="app.diagrams.net" modified="2023-11-06T13:42:49.436Z" agent="Mozilla/5.0 (Macintosh; Intel Mac OS X 10_15_7) AppleWebKit/537.36 (KHTML, like Gecko) Chrome/118.0.0.0 Safari/537.36" etag="g4zI4Aarn3mAXn-q3mam" version="21.7.4" type="device">
  <diagram name="Page-1" id="6eDXs1MDICLBCnDbZt5E">
    <mxGraphModel dx="2524" dy="688" grid="1" gridSize="10" guides="1" tooltips="1" connect="1" arrows="1" fold="1" page="1" pageScale="1" pageWidth="850" pageHeight="1100" math="0" shadow="0">
      <root>
        <mxCell id="0" />
        <mxCell id="1" parent="0" />
        <mxCell id="LI0KyII_rkmndwl0NOCZ-1" value="" style="whiteSpace=wrap;html=1;aspect=fixed;" vertex="1" parent="1">
          <mxGeometry x="-10" y="34" width="1540" height="1540" as="geometry" />
        </mxCell>
        <mxCell id="LI0KyII_rkmndwl0NOCZ-6" style="edgeStyle=orthogonalEdgeStyle;rounded=0;orthogonalLoop=1;jettySize=auto;html=1;" edge="1" parent="1" target="LI0KyII_rkmndwl0NOCZ-5">
          <mxGeometry relative="1" as="geometry">
            <mxPoint x="460" y="326" as="sourcePoint" />
          </mxGeometry>
        </mxCell>
        <mxCell id="LI0KyII_rkmndwl0NOCZ-7" value="Fetch latest data" style="edgeLabel;html=1;align=center;verticalAlign=middle;resizable=0;points=[];" vertex="1" connectable="0" parent="LI0KyII_rkmndwl0NOCZ-6">
          <mxGeometry x="-0.37" y="1" relative="1" as="geometry">
            <mxPoint x="-1" y="12" as="offset" />
          </mxGeometry>
        </mxCell>
        <mxCell id="LI0KyII_rkmndwl0NOCZ-13" style="edgeStyle=orthogonalEdgeStyle;rounded=0;orthogonalLoop=1;jettySize=auto;html=1;entryX=0;entryY=0.5;entryDx=0;entryDy=0;entryPerimeter=0;" edge="1" parent="1" target="LI0KyII_rkmndwl0NOCZ-11">
          <mxGeometry relative="1" as="geometry">
            <mxPoint x="425.5" y="290" as="sourcePoint" />
            <Array as="points">
              <mxPoint x="426" y="189" />
            </Array>
          </mxGeometry>
        </mxCell>
        <mxCell id="LI0KyII_rkmndwl0NOCZ-14" value="publish fetched data" style="edgeLabel;html=1;align=center;verticalAlign=middle;resizable=0;points=[];" vertex="1" connectable="0" parent="LI0KyII_rkmndwl0NOCZ-13">
          <mxGeometry x="0.0817" y="2" relative="1" as="geometry">
            <mxPoint x="33" y="2" as="offset" />
          </mxGeometry>
        </mxCell>
        <mxCell id="LI0KyII_rkmndwl0NOCZ-5" value="3rd party Weather data service" style="whiteSpace=wrap;html=1;aspect=fixed;" vertex="1" parent="1">
          <mxGeometry x="579" y="362" width="80" height="80" as="geometry" />
        </mxCell>
        <mxCell id="LI0KyII_rkmndwl0NOCZ-9" style="edgeStyle=orthogonalEdgeStyle;rounded=0;orthogonalLoop=1;jettySize=auto;html=1;" edge="1" parent="1" source="LI0KyII_rkmndwl0NOCZ-8">
          <mxGeometry relative="1" as="geometry">
            <mxPoint x="391" y="326" as="targetPoint" />
          </mxGeometry>
        </mxCell>
        <mxCell id="LI0KyII_rkmndwl0NOCZ-10" value="Trigger execution" style="edgeLabel;html=1;align=center;verticalAlign=middle;resizable=0;points=[];" vertex="1" connectable="0" parent="LI0KyII_rkmndwl0NOCZ-9">
          <mxGeometry x="-0.2023" relative="1" as="geometry">
            <mxPoint x="23" as="offset" />
          </mxGeometry>
        </mxCell>
        <mxCell id="LI0KyII_rkmndwl0NOCZ-8" value="" style="sketch=0;points=[[0,0,0],[0.25,0,0],[0.5,0,0],[0.75,0,0],[1,0,0],[0,1,0],[0.25,1,0],[0.5,1,0],[0.75,1,0],[1,1,0],[0,0.25,0],[0,0.5,0],[0,0.75,0],[1,0.25,0],[1,0.5,0],[1,0.75,0]];points=[[0,0,0],[0.25,0,0],[0.5,0,0],[0.75,0,0],[1,0,0],[0,1,0],[0.25,1,0],[0.5,1,0],[0.75,1,0],[1,1,0],[0,0.25,0],[0,0.5,0],[0,0.75,0],[1,0.25,0],[1,0.5,0],[1,0.75,0]];outlineConnect=0;fontColor=#232F3E;fillColor=#E7157B;strokeColor=#ffffff;dashed=0;verticalLabelPosition=bottom;verticalAlign=top;align=center;html=1;fontSize=12;fontStyle=0;aspect=fixed;shape=mxgraph.aws4.resourceIcon;resIcon=mxgraph.aws4.cloudwatch_2;" vertex="1" parent="1">
          <mxGeometry x="140" y="287" width="78" height="78" as="geometry" />
        </mxCell>
        <mxCell id="LI0KyII_rkmndwl0NOCZ-11" value="" style="sketch=0;points=[[0,0,0],[0.25,0,0],[0.5,0,0],[0.75,0,0],[1,0,0],[0,1,0],[0.25,1,0],[0.5,1,0],[0.75,1,0],[1,1,0],[0,0.25,0],[0,0.5,0],[0,0.75,0],[1,0.25,0],[1,0.5,0],[1,0.75,0]];outlineConnect=0;fontColor=#232F3E;fillColor=#E7157B;strokeColor=#ffffff;dashed=0;verticalLabelPosition=bottom;verticalAlign=top;align=center;html=1;fontSize=12;fontStyle=0;aspect=fixed;shape=mxgraph.aws4.resourceIcon;resIcon=mxgraph.aws4.sqs;" vertex="1" parent="1">
          <mxGeometry x="570" y="150" width="78" height="78" as="geometry" />
        </mxCell>
        <mxCell id="LI0KyII_rkmndwl0NOCZ-25" style="edgeStyle=orthogonalEdgeStyle;rounded=0;orthogonalLoop=1;jettySize=auto;html=1;entryX=0;entryY=0.5;entryDx=0;entryDy=0;entryPerimeter=0;" edge="1" parent="1" source="LI0KyII_rkmndwl0NOCZ-15" target="LI0KyII_rkmndwl0NOCZ-24">
          <mxGeometry relative="1" as="geometry" />
        </mxCell>
        <mxCell id="LI0KyII_rkmndwl0NOCZ-26" value="save data" style="edgeLabel;html=1;align=center;verticalAlign=middle;resizable=0;points=[];" vertex="1" connectable="0" parent="LI0KyII_rkmndwl0NOCZ-25">
          <mxGeometry x="-0.0991" y="-2" relative="1" as="geometry">
            <mxPoint as="offset" />
          </mxGeometry>
        </mxCell>
        <mxCell id="LI0KyII_rkmndwl0NOCZ-15" value="save data process" style="sketch=0;points=[[0,0,0],[0.25,0,0],[0.5,0,0],[0.75,0,0],[1,0,0],[0,1,0],[0.25,1,0],[0.5,1,0],[0.75,1,0],[1,1,0],[0,0.25,0],[0,0.5,0],[0,0.75,0],[1,0.25,0],[1,0.5,0],[1,0.75,0]];outlineConnect=0;fontColor=#232F3E;fillColor=#ED7100;strokeColor=#ffffff;dashed=0;verticalLabelPosition=bottom;verticalAlign=top;align=center;html=1;fontSize=12;fontStyle=0;aspect=fixed;shape=mxgraph.aws4.resourceIcon;resIcon=mxgraph.aws4.lambda;" vertex="1" parent="1">
          <mxGeometry x="390" y="591" width="78" height="78" as="geometry" />
        </mxCell>
        <mxCell id="LI0KyII_rkmndwl0NOCZ-16" value="DataFetcher" style="sketch=0;points=[[0,0,0],[0.25,0,0],[0.5,0,0],[0.75,0,0],[1,0,0],[0,1,0],[0.25,1,0],[0.5,1,0],[0.75,1,0],[1,1,0],[0,0.25,0],[0,0.5,0],[0,0.75,0],[1,0.25,0],[1,0.5,0],[1,0.75,0]];outlineConnect=0;fontColor=#232F3E;fillColor=#ED7100;strokeColor=#ffffff;dashed=0;verticalLabelPosition=bottom;verticalAlign=top;align=center;html=1;fontSize=12;fontStyle=0;aspect=fixed;shape=mxgraph.aws4.resourceIcon;resIcon=mxgraph.aws4.lambda;" vertex="1" parent="1">
          <mxGeometry x="390" y="290" width="78" height="78" as="geometry" />
        </mxCell>
        <mxCell id="LI0KyII_rkmndwl0NOCZ-17" value="Fetch data process" style="text;html=1;strokeColor=none;fillColor=none;align=center;verticalAlign=middle;whiteSpace=wrap;rounded=0;fontStyle=1" vertex="1" parent="1">
          <mxGeometry x="210" y="210" width="131" height="30" as="geometry" />
        </mxCell>
        <mxCell id="LI0KyII_rkmndwl0NOCZ-22" style="edgeStyle=orthogonalEdgeStyle;rounded=0;orthogonalLoop=1;jettySize=auto;html=1;" edge="1" parent="1" source="LI0KyII_rkmndwl0NOCZ-18" target="LI0KyII_rkmndwl0NOCZ-15">
          <mxGeometry relative="1" as="geometry" />
        </mxCell>
        <mxCell id="LI0KyII_rkmndwl0NOCZ-23" value="consume message" style="edgeLabel;html=1;align=center;verticalAlign=middle;resizable=0;points=[];" vertex="1" connectable="0" parent="LI0KyII_rkmndwl0NOCZ-22">
          <mxGeometry x="-0.0349" y="-2" relative="1" as="geometry">
            <mxPoint y="-2" as="offset" />
          </mxGeometry>
        </mxCell>
        <mxCell id="LI0KyII_rkmndwl0NOCZ-18" value="" style="sketch=0;points=[[0,0,0],[0.25,0,0],[0.5,0,0],[0.75,0,0],[1,0,0],[0,1,0],[0.25,1,0],[0.5,1,0],[0.75,1,0],[1,1,0],[0,0.25,0],[0,0.5,0],[0,0.75,0],[1,0.25,0],[1,0.5,0],[1,0.75,0]];outlineConnect=0;fontColor=#232F3E;fillColor=#E7157B;strokeColor=#ffffff;dashed=0;verticalLabelPosition=bottom;verticalAlign=top;align=center;html=1;fontSize=12;fontStyle=0;aspect=fixed;shape=mxgraph.aws4.resourceIcon;resIcon=mxgraph.aws4.sqs;" vertex="1" parent="1">
          <mxGeometry x="140" y="591" width="78" height="78" as="geometry" />
        </mxCell>
        <mxCell id="LI0KyII_rkmndwl0NOCZ-19" value="cloudwatch" style="text;html=1;strokeColor=none;fillColor=none;align=center;verticalAlign=middle;whiteSpace=wrap;rounded=0;" vertex="1" parent="1">
          <mxGeometry x="150" y="260" width="60" height="30" as="geometry" />
        </mxCell>
        <mxCell id="LI0KyII_rkmndwl0NOCZ-20" value="simple queue service" style="text;html=1;strokeColor=none;fillColor=none;align=center;verticalAlign=middle;whiteSpace=wrap;rounded=0;" vertex="1" parent="1">
          <mxGeometry x="549" y="120" width="110" height="30" as="geometry" />
        </mxCell>
        <mxCell id="LI0KyII_rkmndwl0NOCZ-21" value="simple queue service" style="text;html=1;strokeColor=none;fillColor=none;align=center;verticalAlign=middle;whiteSpace=wrap;rounded=0;" vertex="1" parent="1">
          <mxGeometry x="130" y="561" width="110" height="30" as="geometry" />
        </mxCell>
        <mxCell id="LI0KyII_rkmndwl0NOCZ-24" value="" style="outlineConnect=0;dashed=0;verticalLabelPosition=bottom;verticalAlign=top;align=center;html=1;shape=mxgraph.aws3.postgre_sql_instance;fillColor=#2E73B8;gradientColor=none;" vertex="1" parent="1">
          <mxGeometry x="579" y="598.5" width="60" height="63" as="geometry" />
        </mxCell>
        <mxCell id="LI0KyII_rkmndwl0NOCZ-27" value="&lt;b&gt;Connect to db/save data&lt;/b&gt;" style="text;html=1;strokeColor=none;fillColor=none;align=center;verticalAlign=middle;whiteSpace=wrap;rounded=0;" vertex="1" parent="1">
          <mxGeometry x="200" y="510" width="100" height="30" as="geometry" />
        </mxCell>
        <mxCell id="LI0KyII_rkmndwl0NOCZ-35" style="edgeStyle=orthogonalEdgeStyle;rounded=0;orthogonalLoop=1;jettySize=auto;html=1;" edge="1" parent="1" source="LI0KyII_rkmndwl0NOCZ-28" target="LI0KyII_rkmndwl0NOCZ-33">
          <mxGeometry relative="1" as="geometry" />
        </mxCell>
        <mxCell id="LI0KyII_rkmndwl0NOCZ-36" value="fetch stored data" style="edgeLabel;html=1;align=center;verticalAlign=middle;resizable=0;points=[];" vertex="1" connectable="0" parent="LI0KyII_rkmndwl0NOCZ-35">
          <mxGeometry x="-0.424" y="2" relative="1" as="geometry">
            <mxPoint as="offset" />
          </mxGeometry>
        </mxCell>
        <mxCell id="LI0KyII_rkmndwl0NOCZ-40" style="edgeStyle=orthogonalEdgeStyle;rounded=0;orthogonalLoop=1;jettySize=auto;html=1;entryX=0;entryY=0.5;entryDx=0;entryDy=0;entryPerimeter=0;" edge="1" parent="1" source="LI0KyII_rkmndwl0NOCZ-28" target="LI0KyII_rkmndwl0NOCZ-38">
          <mxGeometry relative="1" as="geometry" />
        </mxCell>
        <mxCell id="LI0KyII_rkmndwl0NOCZ-41" value="notification emails" style="edgeLabel;html=1;align=center;verticalAlign=middle;resizable=0;points=[];" vertex="1" connectable="0" parent="LI0KyII_rkmndwl0NOCZ-40">
          <mxGeometry x="-0.3445" y="-3" relative="1" as="geometry">
            <mxPoint as="offset" />
          </mxGeometry>
        </mxCell>
        <mxCell id="LI0KyII_rkmndwl0NOCZ-28" value="sevisionpro algorithm" style="sketch=0;points=[[0,0,0],[0.25,0,0],[0.5,0,0],[0.75,0,0],[1,0,0],[0,1,0],[0.25,1,0],[0.5,1,0],[0.75,1,0],[1,1,0],[0,0.25,0],[0,0.5,0],[0,0.75,0],[1,0.25,0],[1,0.5,0],[1,0.75,0]];outlineConnect=0;fontColor=#232F3E;fillColor=#ED7100;strokeColor=#ffffff;dashed=0;verticalLabelPosition=bottom;verticalAlign=top;align=center;html=1;fontSize=12;fontStyle=0;aspect=fixed;shape=mxgraph.aws4.resourceIcon;resIcon=mxgraph.aws4.lambda;" vertex="1" parent="1">
          <mxGeometry x="425" y="897" width="78" height="78" as="geometry" />
        </mxCell>
        <mxCell id="LI0KyII_rkmndwl0NOCZ-29" value="&lt;b&gt;algorithm&lt;/b&gt;&amp;nbsp;" style="text;html=1;strokeColor=none;fillColor=none;align=center;verticalAlign=middle;whiteSpace=wrap;rounded=0;" vertex="1" parent="1">
          <mxGeometry x="220" y="830" width="60" height="30" as="geometry" />
        </mxCell>
        <mxCell id="LI0KyII_rkmndwl0NOCZ-32" style="edgeStyle=orthogonalEdgeStyle;rounded=0;orthogonalLoop=1;jettySize=auto;html=1;" edge="1" parent="1" source="LI0KyII_rkmndwl0NOCZ-30" target="LI0KyII_rkmndwl0NOCZ-28">
          <mxGeometry relative="1" as="geometry" />
        </mxCell>
        <mxCell id="LI0KyII_rkmndwl0NOCZ-30" value="" style="sketch=0;points=[[0,0,0],[0.25,0,0],[0.5,0,0],[0.75,0,0],[1,0,0],[0,1,0],[0.25,1,0],[0.5,1,0],[0.75,1,0],[1,1,0],[0,0.25,0],[0,0.5,0],[0,0.75,0],[1,0.25,0],[1,0.5,0],[1,0.75,0]];points=[[0,0,0],[0.25,0,0],[0.5,0,0],[0.75,0,0],[1,0,0],[0,1,0],[0.25,1,0],[0.5,1,0],[0.75,1,0],[1,1,0],[0,0.25,0],[0,0.5,0],[0,0.75,0],[1,0.25,0],[1,0.5,0],[1,0.75,0]];outlineConnect=0;fontColor=#232F3E;fillColor=#E7157B;strokeColor=#ffffff;dashed=0;verticalLabelPosition=bottom;verticalAlign=top;align=center;html=1;fontSize=12;fontStyle=0;aspect=fixed;shape=mxgraph.aws4.resourceIcon;resIcon=mxgraph.aws4.cloudwatch_2;" vertex="1" parent="1">
          <mxGeometry x="153" y="897" width="78" height="78" as="geometry" />
        </mxCell>
        <mxCell id="LI0KyII_rkmndwl0NOCZ-31" value="cloudwatch" style="text;html=1;strokeColor=none;fillColor=none;align=center;verticalAlign=middle;whiteSpace=wrap;rounded=0;" vertex="1" parent="1">
          <mxGeometry x="163" y="870" width="60" height="30" as="geometry" />
        </mxCell>
        <mxCell id="LI0KyII_rkmndwl0NOCZ-33" value="" style="outlineConnect=0;dashed=0;verticalLabelPosition=bottom;verticalAlign=top;align=center;html=1;shape=mxgraph.aws3.postgre_sql_instance;fillColor=#2E73B8;gradientColor=none;" vertex="1" parent="1">
          <mxGeometry x="630" y="780" width="60" height="63" as="geometry" />
        </mxCell>
        <mxCell id="LI0KyII_rkmndwl0NOCZ-55" style="edgeStyle=orthogonalEdgeStyle;rounded=0;orthogonalLoop=1;jettySize=auto;html=1;" edge="1" parent="1" source="LI0KyII_rkmndwl0NOCZ-37" target="LI0KyII_rkmndwl0NOCZ-51">
          <mxGeometry relative="1" as="geometry" />
        </mxCell>
        <mxCell id="LI0KyII_rkmndwl0NOCZ-37" value="" style="sketch=0;points=[[0,0,0],[0.25,0,0],[0.5,0,0],[0.75,0,0],[1,0,0],[0,1,0],[0.25,1,0],[0.5,1,0],[0.75,1,0],[1,1,0],[0,0.25,0],[0,0.5,0],[0,0.75,0],[1,0.25,0],[1,0.5,0],[1,0.75,0]];outlineConnect=0;fontColor=#232F3E;fillColor=#E7157B;strokeColor=#ffffff;dashed=0;verticalLabelPosition=bottom;verticalAlign=top;align=center;html=1;fontSize=12;fontStyle=0;aspect=fixed;shape=mxgraph.aws4.resourceIcon;resIcon=mxgraph.aws4.api_gateway;" vertex="1" parent="1">
          <mxGeometry x="146" y="1130" width="78" height="78" as="geometry" />
        </mxCell>
        <mxCell id="LI0KyII_rkmndwl0NOCZ-38" value="" style="sketch=0;points=[[0,0,0],[0.25,0,0],[0.5,0,0],[0.75,0,0],[1,0,0],[0,1,0],[0.25,1,0],[0.5,1,0],[0.75,1,0],[1,1,0],[0,0.25,0],[0,0.5,0],[0,0.75,0],[1,0.25,0],[1,0.5,0],[1,0.75,0]];outlineConnect=0;fontColor=#232F3E;fillColor=#E7157B;strokeColor=#ffffff;dashed=0;verticalLabelPosition=bottom;verticalAlign=top;align=center;html=1;fontSize=12;fontStyle=0;aspect=fixed;shape=mxgraph.aws4.resourceIcon;resIcon=mxgraph.aws4.sqs;" vertex="1" parent="1">
          <mxGeometry x="478" y="765" width="78" height="78" as="geometry" />
        </mxCell>
        <mxCell id="LI0KyII_rkmndwl0NOCZ-39" value="simple queue service" style="text;html=1;strokeColor=none;fillColor=none;align=center;verticalAlign=middle;whiteSpace=wrap;rounded=0;" vertex="1" parent="1">
          <mxGeometry x="468" y="735" width="110" height="30" as="geometry" />
        </mxCell>
        <mxCell id="LI0KyII_rkmndwl0NOCZ-45" style="edgeStyle=orthogonalEdgeStyle;rounded=0;orthogonalLoop=1;jettySize=auto;html=1;" edge="1" parent="1" source="LI0KyII_rkmndwl0NOCZ-42" target="LI0KyII_rkmndwl0NOCZ-44">
          <mxGeometry relative="1" as="geometry" />
        </mxCell>
        <mxCell id="LI0KyII_rkmndwl0NOCZ-42" value="" style="sketch=0;points=[[0,0,0],[0.25,0,0],[0.5,0,0],[0.75,0,0],[1,0,0],[0,1,0],[0.25,1,0],[0.5,1,0],[0.75,1,0],[1,1,0],[0,0.25,0],[0,0.5,0],[0,0.75,0],[1,0.25,0],[1,0.5,0],[1,0.75,0]];outlineConnect=0;fontColor=#232F3E;fillColor=#E7157B;strokeColor=#ffffff;dashed=0;verticalLabelPosition=bottom;verticalAlign=top;align=center;html=1;fontSize=12;fontStyle=0;aspect=fixed;shape=mxgraph.aws4.resourceIcon;resIcon=mxgraph.aws4.sqs;" vertex="1" parent="1">
          <mxGeometry x="870" y="752" width="78" height="78" as="geometry" />
        </mxCell>
        <mxCell id="LI0KyII_rkmndwl0NOCZ-43" value="simple queue service" style="text;html=1;strokeColor=none;fillColor=none;align=center;verticalAlign=middle;whiteSpace=wrap;rounded=0;" vertex="1" parent="1">
          <mxGeometry x="860" y="722" width="110" height="30" as="geometry" />
        </mxCell>
        <mxCell id="LI0KyII_rkmndwl0NOCZ-47" style="edgeStyle=orthogonalEdgeStyle;rounded=0;orthogonalLoop=1;jettySize=auto;html=1;" edge="1" parent="1" source="LI0KyII_rkmndwl0NOCZ-44" target="LI0KyII_rkmndwl0NOCZ-46">
          <mxGeometry relative="1" as="geometry" />
        </mxCell>
        <mxCell id="LI0KyII_rkmndwl0NOCZ-48" value="Notify" style="edgeLabel;html=1;align=center;verticalAlign=middle;resizable=0;points=[];" vertex="1" connectable="0" parent="LI0KyII_rkmndwl0NOCZ-47">
          <mxGeometry x="0.2689" relative="1" as="geometry">
            <mxPoint as="offset" />
          </mxGeometry>
        </mxCell>
        <mxCell id="LI0KyII_rkmndwl0NOCZ-44" value="notifications" style="sketch=0;points=[[0,0,0],[0.25,0,0],[0.5,0,0],[0.75,0,0],[1,0,0],[0,1,0],[0.25,1,0],[0.5,1,0],[0.75,1,0],[1,1,0],[0,0.25,0],[0,0.5,0],[0,0.75,0],[1,0.25,0],[1,0.5,0],[1,0.75,0]];outlineConnect=0;fontColor=#232F3E;fillColor=#ED7100;strokeColor=#ffffff;dashed=0;verticalLabelPosition=bottom;verticalAlign=top;align=center;html=1;fontSize=12;fontStyle=0;aspect=fixed;shape=mxgraph.aws4.resourceIcon;resIcon=mxgraph.aws4.lambda;" vertex="1" parent="1">
          <mxGeometry x="1080" y="752" width="78" height="78" as="geometry" />
        </mxCell>
        <mxCell id="LI0KyII_rkmndwl0NOCZ-46" value="" style="sketch=0;points=[[0,0,0],[0.25,0,0],[0.5,0,0],[0.75,0,0],[1,0,0],[0,1,0],[0.25,1,0],[0.5,1,0],[0.75,1,0],[1,1,0],[0,0.25,0],[0,0.5,0],[0,0.75,0],[1,0.25,0],[1,0.5,0],[1,0.75,0]];outlineConnect=0;fontColor=#232F3E;fillColor=#E7157B;strokeColor=#ffffff;dashed=0;verticalLabelPosition=bottom;verticalAlign=top;align=center;html=1;fontSize=12;fontStyle=0;aspect=fixed;shape=mxgraph.aws4.resourceIcon;resIcon=mxgraph.aws4.sns;" vertex="1" parent="1">
          <mxGeometry x="1170" y="598.5" width="78" height="78" as="geometry" />
        </mxCell>
        <mxCell id="LI0KyII_rkmndwl0NOCZ-49" value="sns" style="text;html=1;strokeColor=none;fillColor=none;align=center;verticalAlign=middle;whiteSpace=wrap;rounded=0;" vertex="1" parent="1">
          <mxGeometry x="1179" y="568.5" width="60" height="30" as="geometry" />
        </mxCell>
        <mxCell id="LI0KyII_rkmndwl0NOCZ-50" value="apigateway" style="text;html=1;strokeColor=none;fillColor=none;align=center;verticalAlign=middle;whiteSpace=wrap;rounded=0;" vertex="1" parent="1">
          <mxGeometry x="155" y="1100" width="60" height="30" as="geometry" />
        </mxCell>
        <mxCell id="LI0KyII_rkmndwl0NOCZ-54" style="edgeStyle=orthogonalEdgeStyle;rounded=0;orthogonalLoop=1;jettySize=auto;html=1;" edge="1" parent="1" source="LI0KyII_rkmndwl0NOCZ-51" target="LI0KyII_rkmndwl0NOCZ-53">
          <mxGeometry relative="1" as="geometry" />
        </mxCell>
        <mxCell id="LI0KyII_rkmndwl0NOCZ-51" value="fetch stored data" style="sketch=0;points=[[0,0,0],[0.25,0,0],[0.5,0,0],[0.75,0,0],[1,0,0],[0,1,0],[0.25,1,0],[0.5,1,0],[0.75,1,0],[1,1,0],[0,0.25,0],[0,0.5,0],[0,0.75,0],[1,0.25,0],[1,0.5,0],[1,0.75,0]];outlineConnect=0;fontColor=#232F3E;fillColor=#ED7100;strokeColor=#ffffff;dashed=0;verticalLabelPosition=bottom;verticalAlign=top;align=center;html=1;fontSize=12;fontStyle=0;aspect=fixed;shape=mxgraph.aws4.resourceIcon;resIcon=mxgraph.aws4.lambda;" vertex="1" parent="1">
          <mxGeometry x="386" y="1130" width="78" height="78" as="geometry" />
        </mxCell>
        <mxCell id="LI0KyII_rkmndwl0NOCZ-53" value="" style="outlineConnect=0;dashed=0;verticalLabelPosition=bottom;verticalAlign=top;align=center;html=1;shape=mxgraph.aws3.postgre_sql_instance;fillColor=#2E73B8;gradientColor=none;" vertex="1" parent="1">
          <mxGeometry x="599" y="1137.5" width="60" height="63" as="geometry" />
        </mxCell>
        <mxCell id="LI0KyII_rkmndwl0NOCZ-56" value="&lt;b&gt;website fetch&lt;/b&gt;" style="text;html=1;strokeColor=none;fillColor=none;align=center;verticalAlign=middle;whiteSpace=wrap;rounded=0;" vertex="1" parent="1">
          <mxGeometry x="246.5" y="1080" width="94.5" height="30" as="geometry" />
        </mxCell>
      </root>
    </mxGraphModel>
  </diagram>
</mxfile>
